<svg width="240" height="240" viewBox="0 0 240 240" fill="none" xmlns="http://www.w3.org/2000/svg">
<path d="M199.579 98.7841C199.6 98.1457 199.611 97.5045 199.611 96.8609C199.611 65.4575 174.118 40 142.672 40C117.726 40 96.5268 56.0198 88.828 78.3196C83.2989 75.4382 77.0115 73.8092 70.3431 73.8092C48.2453 73.8092 30.3315 91.6982 30.3315 113.766C30.3315 135.833 48.2453 153.722 70.3431 153.722L142.672 153.722C142.697 153.722 142.723 153.722 142.748 153.722H185.761C201.909 153.722 215 140.649 215 124.523C215 113.388 208.759 103.709 199.579 98.7841Z" fill="#6E6E6E"/>
<path d="M193.248 144.062C193.269 143.424 193.28 142.783 193.28 142.139C193.28 110.736 167.787 85.2781 136.34 85.2781C111.394 85.2781 90.1953 101.298 82.4965 123.598C76.9674 120.716 70.68 119.087 64.0115 119.087C41.9138 119.087 24 136.976 24 159.044C24 181.111 41.9138 199 64.0115 199L136.417 199H179.429C195.578 199 208.669 185.927 208.669 169.801C208.669 158.666 202.427 148.987 193.248 144.062Z" fill="white"/>
</svg>
