<svg width="240" height="240" viewBox="0 0 240 240" fill="none" xmlns="http://www.w3.org/2000/svg">
<path d="M204.906 59.6426C204.913 59.4293 204.917 59.2151 204.917 59C204.917 48.5066 196.496 40 186.108 40C177.868 40 170.866 45.353 168.323 52.8044C166.496 51.8416 164.419 51.2973 162.217 51.2973C154.917 51.2973 149 57.2749 149 64.6486C149 72.0224 154.917 78 162.217 78L186.134 78H200.342C205.676 78 210 73.6317 210 68.2432C210 64.5226 207.938 61.2883 204.906 59.6426Z" fill="white"/>
<path d="M191.381 174.958C193.864 172.398 191.465 168.334 187.907 168.609C185.749 168.776 183.568 168.861 181.366 168.861C135.154 168.861 97.6917 131.428 97.6917 85.252C97.6917 71.0498 101.236 57.6746 107.488 45.9612C109.17 42.8104 106.398 38.9833 103.056 40.248C71.9024 52.036 49.75 82.1641 49.75 117.47C49.75 163.05 86.6703 200 132.214 200C155.424 200 176.395 190.403 191.381 174.958Z" fill="#6E6E6E"/>
<path d="M103.32 162.599C103.329 162.321 103.333 162.042 103.333 161.762C103.333 148.086 92.2897 137 78.6667 137C67.86 137 58.6764 143.976 55.3412 153.687C52.9459 152.433 50.2222 151.723 47.3333 151.723C37.7604 151.723 30 159.514 30 169.124C30 178.733 37.7604 186.524 47.3333 186.524L78.6999 186.524H97.3333C104.329 186.524 110 180.831 110 173.808C110 168.959 107.296 164.744 103.32 162.599Z" fill="white"/>
</svg>
