<svg width="240" height="240" viewBox="0 0 240 240" fill="none" xmlns="http://www.w3.org/2000/svg">
<path d="M194.969 92.5987C194.99 91.9731 195 91.3449 195 90.7143C195 59.9441 170.152 35 139.5 35C115.185 35 94.5218 50.6968 87.0176 72.5468C81.6283 69.7236 75.4999 68.1274 69 68.1274C47.4609 68.1274 30 85.6557 30 107.278C30 128.9 47.4609 146.429 69 146.429L139.5 146.429C139.525 146.429 139.55 146.429 139.575 146.429H181.5C197.24 146.429 210 133.619 210 117.818C210 106.908 203.917 97.4243 194.969 92.5987Z" fill="white"/>
<path fill-rule="evenodd" clip-rule="evenodd" d="M57 160C57 157.239 59.2386 155 62 155H177C179.761 155 182 157.239 182 160C182 162.761 179.761 165 177 165H62C59.2386 165 57 162.761 57 160ZM57 180C57 177.239 59.2386 175 62 175H177C179.761 175 182 177.239 182 180C182 182.761 179.761 185 177 185H62C59.2386 185 57 182.761 57 180ZM62 195C59.2386 195 57 197.239 57 200C57 202.761 59.2386 205 62 205H177C179.761 205 182 202.761 182 200C182 197.239 179.761 195 177 195H62Z" fill="black" fill-opacity="0.4"/>
</svg>
