<svg width="240" height="240" viewBox="0 0 240 240" fill="none" xmlns="http://www.w3.org/2000/svg">
<path fill-rule="evenodd" clip-rule="evenodd" d="M99.1528 129.028C125.041 129.028 146.028 108.041 146.028 82.1528C146.028 56.2644 125.041 35.2778 99.1528 35.2778C73.2644 35.2778 52.2778 56.2644 52.2778 82.1528C52.2778 108.041 73.2644 129.028 99.1528 129.028Z" fill="#6E6E6E"/>
<path d="M191.055 119.491C191.072 118.99 191.08 118.487 191.08 117.982C191.08 93.3354 171.366 73.3555 147.048 73.3555C127.758 73.3555 111.364 85.9284 105.411 103.43C101.135 101.169 96.2731 99.8902 91.1164 99.8902C74.0281 99.8902 60.1753 113.93 60.1753 131.249C60.1753 148.569 74.0281 162.609 91.1164 162.609L147.048 162.609C147.068 162.609 147.088 162.609 147.108 162.608H180.369C192.857 162.608 202.98 152.349 202.98 139.692C202.98 130.953 198.154 123.357 191.055 119.491Z" fill="white"/>
<path fill-rule="evenodd" clip-rule="evenodd" d="M113.094 171.35C111.011 170.673 108.773 171.814 108.096 173.897L94.5797 215.496C93.9027 217.579 95.043 219.817 97.1266 220.494C99.2102 221.171 101.448 220.031 102.125 217.947L115.641 176.349C116.318 174.265 115.178 172.027 113.094 171.35ZM160.839 171.35C158.755 170.673 156.517 171.814 155.84 173.897L142.324 215.496C141.647 217.579 142.787 219.817 144.871 220.494C146.954 221.171 149.192 220.031 149.869 217.947L163.385 176.349C164.062 174.265 162.922 172.027 160.839 171.35ZM124.068 173.897C124.745 171.814 126.983 170.673 129.067 171.35C131.15 172.027 132.29 174.265 131.613 176.349L121.363 207.895C120.686 209.979 118.448 211.119 116.365 210.442C114.281 209.765 113.141 207.527 113.818 205.444L124.068 173.897ZM176.613 171.35C174.53 170.673 172.292 171.814 171.615 173.897L161.365 205.444C160.688 207.527 161.828 209.765 163.912 210.442C165.995 211.119 168.233 209.979 168.91 207.895L179.16 176.349C179.837 174.265 178.697 172.027 176.613 171.35ZM92.1239 173.897C92.8009 171.814 95.0388 170.673 97.1224 171.35C99.206 172.027 100.346 174.265 99.6692 176.349L92.6854 197.843C92.0084 199.927 89.7705 201.067 87.6869 200.39C85.6033 199.713 84.463 197.475 85.14 195.391L92.1239 173.897ZM145.038 171.35C142.954 170.673 140.716 171.814 140.039 173.897L133.055 195.391C132.378 197.475 133.519 199.713 135.602 200.39C137.686 201.067 139.924 199.927 140.601 197.843L147.585 176.349C148.262 174.265 147.121 172.027 145.038 171.35Z" fill="#B4F5F2"/>
</svg>
