<svg width="240" height="240" viewBox="0 0 240 240" fill="none" xmlns="http://www.w3.org/2000/svg">
<path fill-rule="evenodd" clip-rule="evenodd" d="M71.9484 162.983C72.7419 160.546 75.3613 159.212 77.7988 160.002C80.2364 160.792 81.5691 163.407 80.7755 165.844L72.6108 190.911C71.8172 193.348 69.1979 194.682 66.7603 193.892C64.3228 193.102 62.9901 190.487 63.7836 188.05L71.9484 162.983ZM96.4842 160.002C94.0466 159.212 91.4273 160.546 90.6337 162.983L74.827 211.513C74.0334 213.949 75.3661 216.565 77.8037 217.355C80.2412 218.145 82.8606 216.81 83.6541 214.374L99.4609 165.844C100.254 163.407 98.9217 160.792 96.4842 160.002ZM152.34 160.002C149.902 159.212 147.283 160.546 146.489 162.983L130.682 211.513C129.889 213.949 131.222 216.565 133.659 217.355C136.097 218.145 138.716 216.811 139.51 214.374L155.316 165.844C156.11 163.408 154.777 160.792 152.34 160.002ZM109.319 162.983C110.113 160.546 112.732 159.212 115.17 160.002C117.607 160.792 118.94 163.408 118.147 165.844L106.161 202.643C105.367 205.079 102.748 206.414 100.31 205.624C97.8728 204.834 96.5401 202.218 97.3337 199.782L109.319 162.983ZM170.794 160.002C168.357 159.212 165.737 160.546 164.944 162.983L152.958 199.782C152.164 202.218 153.497 204.834 155.935 205.624C158.372 206.414 160.992 205.079 161.785 202.643L173.771 165.844C174.564 163.408 173.232 160.792 170.794 160.002ZM133.854 160.002C131.417 159.212 128.798 160.546 128.004 162.983L119.839 188.05C119.046 190.487 120.378 193.102 122.816 193.892C125.254 194.682 127.873 193.348 128.666 190.911L136.831 165.844C137.625 163.407 136.292 160.792 133.854 160.002Z" fill="#B4F5F2"/>
<path d="M184.539 68.1618C184.556 67.6496 184.565 67.1352 184.565 66.6188C184.565 41.4242 163.965 21 138.554 21C118.396 21 101.266 33.8525 95.0452 51.7433C90.5773 49.4317 85.4967 48.1247 80.1082 48.1247C62.2518 48.1247 47.7764 62.4769 47.7764 80.1812C47.7764 97.8854 62.2518 112.238 80.1082 112.238L138.554 112.238C138.575 112.238 138.595 112.238 138.616 112.238H173.373C186.422 112.238 197 101.749 197 88.8117C197 79.8784 191.957 72.113 184.539 68.1618Z" fill="white"/>
<path d="M178.763 105.153C178.78 104.636 178.788 104.116 178.788 103.594C178.788 78.1343 158.189 57.4951 132.778 57.4951C112.62 57.4951 95.4899 70.4829 89.2688 88.562C84.8009 86.226 79.7203 84.9053 74.3318 84.9053C56.4754 84.9053 42 99.4085 42 117.299C42 135.19 56.4754 149.693 74.3318 149.693L132.84 149.693H167.597C180.645 149.693 191.224 139.095 191.224 126.021C191.224 116.993 186.18 109.146 178.763 105.153Z" fill="#6E6E6E"/>
</svg>
