<svg width="240" height="240" viewBox="0 0 240 240" fill="none" xmlns="http://www.w3.org/2000/svg">
<path fill-rule="evenodd" clip-rule="evenodd" d="M150.027 132.681C149.283 132.681 148.631 133.181 148.438 133.899L139.796 166.088C139.516 167.133 140.303 168.159 141.385 168.159H152.986C153.967 168.159 154.73 169.013 154.62 169.988L151.516 197.455C151.311 199.274 153.785 200.017 154.616 198.386L176.209 155.986C176.766 154.892 175.972 153.595 174.744 153.595H165.26C164.094 153.595 163.298 152.415 163.735 151.334L170.365 134.942C170.802 133.861 170.006 132.681 168.84 132.681H150.027Z" fill="#FFF686"/>
<path d="M185.565 85.6188C185.565 86.1352 185.556 86.6496 185.539 87.1618C192.957 91.113 198 98.8784 198 107.812C198 119.775 188.956 129.643 177.277 131.062C176.961 129.465 175.561 128.168 173.758 128.168H147.977C146.33 128.168 144.885 129.266 144.443 130.852L144.336 131.238L81.1082 131.238C63.2518 131.238 48.7764 116.885 48.7764 99.1812C48.7764 81.4769 63.2518 67.1247 81.1082 67.1247C86.4967 67.1247 91.5773 68.4317 96.0452 70.7433C102.266 52.8525 119.396 40 139.554 40C164.965 40 185.565 60.4242 185.565 85.6188Z" fill="white"/>
<path fill-rule="evenodd" clip-rule="evenodd" d="M181.417 122.013C181.417 122.547 181.408 123.079 181.391 123.609C188.897 127.696 194 135.729 194 144.969C194 156.616 185.893 166.343 175.087 168.671L182.578 154.699C183.822 152.63 182.331 149.994 179.916 149.994H179.406H172.084C171.385 149.994 170.902 149.295 171.149 148.641L177.096 132.878C178.012 130.529 176.28 127.994 173.758 127.994H173.562H148.089H147.977C146.33 127.994 144.885 129.091 144.443 130.678L134.065 167.927L133.71 169.201L75.7167 169.201C57.6478 169.201 43 154.355 43 136.042C43 117.729 57.6478 102.883 75.7167 102.883C81.1693 102.883 86.3104 104.235 90.8315 106.626C97.1266 88.1202 114.461 74.8257 134.858 74.8257C160.572 74.8257 181.417 95.9523 181.417 122.013Z" fill="#6E6E6E"/>
</svg>
