<svg width="240" height="240" viewBox="0 0 240 240" fill="none" xmlns="http://www.w3.org/2000/svg">
<path d="M181.631 174.958C184.114 172.398 181.715 168.334 178.157 168.609C175.999 168.776 173.818 168.861 171.616 168.861C125.404 168.861 87.9417 131.428 87.9417 85.252C87.9417 71.0498 91.4856 57.6746 97.738 45.9612C99.4198 42.8104 96.648 38.9833 93.3058 40.248C62.1524 52.036 40 82.1641 40 117.47C40 163.05 76.9203 200 122.464 200C145.674 200 166.645 190.403 181.631 174.958Z" fill="#6E6E6E"/>
<path fill-rule="evenodd" clip-rule="evenodd" d="M147.689 64.7665C147.288 64.1955 146.77 63.3506 145.205 61.1587C145.237 61.1913 137.71 51.5208 137.71 51.5208C136.784 50.3309 137.018 50.1325 138.223 51.07C138.223 51.07 147.825 58.5382 147.825 58.5382C149.979 60.0763 150.845 60.6166 151.424 61.0221C151.995 60.6218 152.84 60.1038 155.032 58.5382C154.999 58.5708 164.67 51.0432 164.67 51.0432C165.86 50.1171 166.058 50.3514 165.12 51.5567C165.12 51.5567 157.652 61.1587 157.652 61.1587C156.114 63.312 155.574 64.1787 155.168 64.7573C155.569 65.3283 156.087 66.1732 157.652 68.3651C157.62 68.3325 165.147 78.003 165.147 78.003C166.073 79.1929 165.839 79.3913 164.634 78.4539L155.032 70.9857C152.878 69.4476 152.012 68.9072 151.433 68.5017C150.862 68.902 150.017 69.42 147.825 70.9857C147.858 70.9531 138.187 78.4806 138.187 78.4806C136.998 79.4068 136.799 79.1724 137.737 77.9671L145.205 68.3651C146.743 66.2118 147.283 65.3451 147.689 64.7665Z" fill="white"/>
<path fill-rule="evenodd" clip-rule="evenodd" d="M190.428 115.461C190.443 115.476 186.934 110.968 186.934 110.968C186.499 110.409 186.607 110.314 187.169 110.751L191.651 114.238C192.657 114.956 193.061 115.208 193.331 115.397C193.598 115.21 193.992 114.968 195.015 114.238C195 114.253 199.508 110.744 199.508 110.744C200.067 110.309 200.162 110.416 199.725 110.979L196.239 115.461C195.521 116.466 195.268 116.871 195.079 117.141C195.266 117.407 195.508 117.802 196.239 118.825C196.223 118.81 199.732 123.317 199.732 123.317C200.167 123.876 200.06 123.972 199.498 123.534L195.015 120.048C194.01 119.33 193.606 119.078 193.336 118.889C193.069 119.075 192.675 119.317 191.651 120.048C191.667 120.033 187.159 123.542 187.159 123.542C186.6 123.977 186.504 123.87 186.942 123.307L190.428 118.825C191.146 117.82 191.398 117.415 191.588 117.145C191.401 116.878 191.159 116.484 190.428 115.461Z" fill="white"/>
</svg>
