<svg width="240" height="240" viewBox="0 0 240 240" fill="none" xmlns="http://www.w3.org/2000/svg">
<path d="M194.969 121.599C194.99 120.973 195 120.345 195 119.714C195 88.9441 170.152 64 139.5 64C115.185 64 94.5218 79.6968 87.0176 101.547C81.6283 98.7236 75.4999 97.1274 69 97.1274C47.4609 97.1274 30 114.656 30 136.278C30 157.9 47.4609 175.429 69 175.429L139.5 175.429C139.525 175.429 139.55 175.429 139.575 175.429H181.5C197.24 175.429 210 162.619 210 146.818C210 135.908 203.917 126.424 194.969 121.599Z" fill="#6E6E6E"/>
</svg>
