<svg width="240" height="240" viewBox="0 0 240 240" fill="none" xmlns="http://www.w3.org/2000/svg">
<path fill-rule="evenodd" clip-rule="evenodd" d="M195 99.7143C195 100.345 194.99 100.973 194.969 101.599C203.917 106.424 210 115.908 210 126.818C210 142.619 197.24 155.429 181.5 155.429H139.575L139.5 155.429H138.365C139.124 154.901 143.87 151.602 145.121 150.776C147.544 152.434 150.803 152.666 153.517 151.103C156.267 149.519 157.697 146.528 157.42 143.566C159.019 142.628 159.069 142.724 159.069 142.724C162.827 140.56 164.116 135.753 161.944 132C159.772 128.249 154.958 126.954 151.194 129.121C151.194 129.121 151.018 129.257 149.49 130.019C147.072 128.392 143.839 128.174 141.143 129.727C138.415 131.298 136.986 134.255 137.234 137.194C135.833 138.03 129.875 141.647 129.875 141.647C129.875 141.647 129.891 133.943 129.958 132.886C132.574 131.609 134.374 128.93 134.374 125.829C134.374 122.692 132.526 119.982 129.857 118.725C129.896 117.348 129.875 116.845 129.875 116.845C129.875 112.517 126.345 109 122 109C117.657 109 114.125 112.51 114.125 116.845C114.125 116.845 114.145 117.011 114.132 118.729C111.468 119.988 109.626 122.693 109.626 125.829C109.626 128.977 111.486 131.694 114.17 132.946C114.097 135.009 114.125 141.647 114.125 141.647C114.125 141.647 108.251 138.188 106.772 137.141C106.999 134.219 105.571 131.29 102.857 129.727C100.152 128.169 96.901 128.396 94.479 130.042C92.95 129.273 92.8061 129.121 92.8061 129.121C89.0481 126.957 84.229 128.247 82.0564 132C79.8847 135.751 81.1673 140.557 84.9314 142.724C84.9314 142.724 85.2887 142.723 86.5738 143.618C86.3178 146.563 87.7466 149.527 90.4827 151.103C93.2088 152.672 96.4882 152.43 98.9159 150.749C99.6612 151.35 105.709 154.881 106.649 155.429L69 155.429C47.4609 155.429 30 137.9 30 116.278C30 94.6557 47.4609 77.1274 69 77.1274C75.4999 77.1274 81.6283 78.7236 87.0176 81.5468C94.5218 59.6968 115.185 44 139.5 44C170.152 44 195 68.9441 195 99.7143Z" fill="white"/>
<path fill-rule="evenodd" clip-rule="evenodd" d="M118.731 179.869V129.917H117.645C115.837 129.917 114.372 128.455 114.372 126.659C114.372 124.86 115.835 123.402 117.645 123.402H118.731V117.964C118.731 116.169 120.198 114.714 122 114.714C123.806 114.714 125.269 116.178 125.269 117.964V123.402H126.355C128.163 123.402 129.628 124.864 129.628 126.659C129.628 128.459 128.166 129.917 126.355 129.917H125.269V179.869H126.355C128.163 179.869 129.628 181.331 129.628 183.127C129.628 184.926 128.166 186.384 126.355 186.384H125.269V191.822C125.269 193.617 123.802 195.071 122 195.071C120.195 195.071 118.731 193.608 118.731 191.822V186.384H117.645C115.837 186.384 114.372 184.922 114.372 183.127C114.372 181.327 115.835 179.869 117.645 179.869H118.731Z" fill="white"/>
<path fill-rule="evenodd" clip-rule="evenodd" d="M101.929 139.584L145.341 164.56L145.884 163.622C146.788 162.062 148.791 161.529 150.352 162.427C151.915 163.326 152.451 165.318 151.546 166.88L151.003 167.817L155.729 170.536C157.289 171.433 157.82 173.427 156.919 174.982C156.016 176.54 154.012 177.072 152.46 176.179L147.734 173.46L147.191 174.397C146.287 175.957 144.284 176.49 142.723 175.593C141.16 174.693 140.624 172.701 141.529 171.139L142.072 170.202L98.6595 145.226L98.1165 146.164C97.2127 147.723 95.2093 148.257 93.6488 147.359C92.0852 146.459 91.549 144.468 92.454 142.906L92.9971 141.969L88.2713 139.25C86.7115 138.352 86.1808 136.359 87.0817 134.804C87.9845 133.245 89.9881 132.714 91.5405 133.607L96.2663 136.326L96.8093 135.389C97.7131 133.829 99.7165 133.295 101.277 134.193C102.841 135.093 103.377 137.084 102.472 138.646L101.929 139.584Z" fill="white"/>
<path fill-rule="evenodd" clip-rule="evenodd" d="M145.341 145.226L101.929 170.202L102.472 171.139C103.375 172.699 102.837 174.695 101.277 175.593C99.7133 176.492 97.7143 175.959 96.8093 174.397L96.2662 173.46L91.5405 176.179C89.9807 177.076 87.9826 176.537 87.0817 174.982C86.1789 173.424 86.7188 171.429 88.2712 170.536L92.997 167.817L92.454 166.88C91.5502 165.32 92.0883 163.325 93.6487 162.427C95.2124 161.527 97.2114 162.06 98.1164 163.622L98.6595 164.56L142.072 139.584L141.529 138.646C140.625 137.087 141.163 135.091 142.723 134.193C144.287 133.294 146.286 133.827 147.191 135.389L147.734 136.326L152.46 133.607C154.02 132.71 156.018 133.249 156.919 134.804C157.821 136.362 157.281 138.357 155.729 139.25L151.003 141.969L151.546 142.906C152.45 144.466 151.912 146.461 150.352 147.359C148.788 148.259 146.789 147.726 145.884 146.164L145.341 145.226Z" fill="white"/>
</svg>
